<?xml version="1.0" standalone="no"?><!DOCTYPE svg PUBLIC "-//W3C//DTD SVG 1.1//EN" "http://www.w3.org/Graphics/SVG/1.1/DTD/svg11.dtd"><svg t="1533730686478" class="icon" style="" viewBox="0 0 1024 1024" version="1.1" xmlns="http://www.w3.org/2000/svg" p-id="3850" xmlns:xlink="http://www.w3.org/1999/xlink" width="64" height="64"><defs><style type="text/css"></style></defs><path d="M876.6 521.3c88.7-126.7 57.9-301.3-68.8-390s-301.3-57.9-390 68.8c-0.2 0.2-0.3 0.5-0.5 0.7l-283.6 405C68.8 698.5 91.3 826.4 184 891.3s220.6 42.4 285.5-50.3l283.6-405c0.2-0.2 0.3-0.5 0.5-0.7 41.2-58.8 26.9-139.9-31.9-181.1C663 213 582 227.3 540.8 286.1c-0.2 0.2-0.3 0.5-0.5 0.7L296.8 634.5l41 28.7 214.8-306.7 0.3 0.2 28.6-41.4c0.1-0.2 0.3-0.4 0.4-0.6 25.3-36 75.2-44.7 111.3-19.4 36.1 25.3 44.9 75.1 19.8 111.2-0.2 0.2-0.3 0.4-0.5 0.6l-29.1 41 0.3 0.2-255 364c-23.7 33.9-59.3 56.6-100.1 63.7-40.8 7.2-81.9-1.9-115.8-25.7-33.9-23.7-56.6-59.3-63.7-100.1-7.2-40.8 1.9-81.9 25.7-115.8l254.9-364.1 0.2 0.1 28.6-41.2c0.2-0.3 0.4-0.5 0.6-0.8 17.8-25.3 40-46.5 66-62.7 25.2-15.8 52.9-26.4 82.3-31.6 29.4-5.2 59.1-4.7 88.2 1.5 30.1 6.4 58.2 18.7 83.7 36.6 25.5 17.8 46.6 40.1 63 66.1 15.8 25.2 26.4 52.9 31.6 82.3 5.2 29.4 4.7 59.1-1.5 88.2-6.4 30-18.7 58.1-36.4 83.4-0.2 0.3-0.4 0.5-0.6 0.8l-28.9 41 0.1 0.1-266.5 380.6 41 28.7 295-421.4c0.2-0.3 0.4-0.5 0.5-0.7z" fill="#555555" p-id="3851"></path></svg>