<?xml version="1.0" standalone="no"?><!DOCTYPE svg PUBLIC "-//W3C//DTD SVG 1.1//EN" "http://www.w3.org/Graphics/SVG/1.1/DTD/svg11.dtd"><svg t="1533730959815" class="icon" style="" viewBox="0 0 1024 1024" version="1.1" xmlns="http://www.w3.org/2000/svg" p-id="4302" xmlns:xlink="http://www.w3.org/1999/xlink" width="64" height="64"><defs><style type="text/css"></style></defs><path d="M944.47609 523.011208c105.196499-150.378996 68.668621-357.610266-81.594714-462.887528C712.618041-45.152585 505.546303-8.596789 400.350801 141.782207c-0.237304 0.237304-0.355956 0.59326-0.59326 0.830564l-336.342636 480.69032c-76.970276 110.024341-50.285532 261.828158 59.655055 338.856264 109.939589 77.0301 261.625752 50.324418 338.59503-59.699923l336.343633-480.690319c0.236307-0.237304 0.354959-0.59326 0.592263-0.830565C847.464588 351.149214 830.504326 254.892498 760.768833 205.992902c-69.61684-48.899596-165.681121-31.927369-214.542828 37.861965-0.237304 0.237304-0.355956 0.59326-0.59326 0.830564L256.846644 657.367194l48.624403 34.063106 254.747922-364.018474 0.355956 0.237305 33.91853-49.137898c0.119649-0.237304 0.355956-0.474608 0.474608-0.711912 30.005007-42.727696 89.185453-53.054412 131.998898-23.025475 42.814442 30.02794 53.250836 89.135599 23.482136 131.982944-0.236307 0.236307-0.354959 0.473611-0.592263 0.710916l-34.51179 48.663289 0.354959 0.237304-302.423109 432.02703c-28.107571 40.236003-70.328753 67.177993-118.716849 75.605279-48.388096 8.544941-97.131152-2.255386-137.335248-30.502548-40.205094-28.129507-67.126145-70.383592-75.546451-118.80858-8.539956-48.424988 2.253392-97.204935 30.479615-137.440938l302.304456-432.14668 0.237304 0.118652 33.91853-48.899596c0.237304-0.355956 0.474608-0.594257 0.711913-0.950213 21.110092-30.02794 47.43888-55.190148 78.274451-74.417761 29.886355-18.753005 62.738013-31.334109 97.605759-37.50601 34.867746-6.1719 70.091449-5.577643 104.603239 1.780778 35.697313 7.595725 69.02358 22.194911 99.265891 43.440605 30.242311 21.126045 55.266923 47.593427 74.716884 78.452928 18.738048 29.909288 31.309182 62.785873 37.477094 97.68054 6.166915 34.894667 5.573655 70.145291-1.77978 104.684002-7.589742 35.60658-22.176963 68.957773-43.169401 98.98671-0.237304 0.355956-0.474608 0.59326-0.710915 0.949216l-34.275483 48.662293 0.119649 0.119649-316.063108 451.729251L594.020841 1023.997009 943.881833 523.841773c0.237304-0.355956 0.474608-0.59326 0.59326-0.830565z" p-id="4303"></path></svg>