<?xml version="1.0" standalone="no"?><!DOCTYPE svg PUBLIC "-//W3C//DTD SVG 1.1//EN" "http://www.w3.org/Graphics/SVG/1.1/DTD/svg11.dtd"><svg t="1533462413406" class="icon" style="" viewBox="0 0 1024 1024" version="1.1" xmlns="http://www.w3.org/2000/svg" p-id="9719" xmlns:xlink="http://www.w3.org/1999/xlink" width="64" height="64"><defs><style type="text/css"></style></defs><path d="M308.8 413.2c52.3 0 94.7-42.4 94.7-94.7 0-52.3-42.4-94.7-94.7-94.7-52.3 0-94.7 42.4-94.7 94.7 0 52.3 42.4 94.7 94.7 94.7z m0-42.1c-29 0-52.6-23.5-52.6-52.6 0-29 23.5-52.6 52.6-52.6 29 0 52.6 23.5 52.6 52.6s-23.6 52.6-52.6 52.6z m0 0" fill="#555555" p-id="9720"></path><path d="M87.9 476.3c0 1 0.4 2 0.6 3l-0.1 0.1c0 0.1 0.1 0.2 0.1 0.3 0.8 4.8 2.9 9 6.3 12.1 0 0 87.8 83.8 88.3 84.3l344.1 320.8c42.2 39.5 109.5 39 151-1.3l226.2-219.3c41.7-40.5 42.5-107.1 1.9-148.7L492.1 104c-4-4-9.4-6.3-15-6.3H192.9c-58.1 0-105 47.1-105 105.3v273.3zM130 467V203c0-35 28.1-63.3 63-63.3h275.3l408.1 417.2c24.4 24.9 23.9 64.9-1.1 89.1L649.1 865.4c-25.4 24.6-67.1 24.9-93 0.7L130 467z" fill="#555555" p-id="9721"></path></svg>