<?xml version="1.0" standalone="no"?><!DOCTYPE svg PUBLIC "-//W3C//DTD SVG 1.1//EN" "http://www.w3.org/Graphics/SVG/1.1/DTD/svg11.dtd"><svg t="1588475184551" class="icon" viewBox="0 0 1024 1024" version="1.1" xmlns="http://www.w3.org/2000/svg" p-id="19520" width="32" height="32" xmlns:xlink="http://www.w3.org/1999/xlink"><defs><style type="text/css"></style></defs><path d="M512 1024C229.229714 1024 0 794.819048 0 512 0 229.229714 229.229714 0 512 0S1024 229.229714 1024 512C1024 794.819048 794.770286 1024 512 1024z m78.311619-761.465905c0-39.204571-40.228571-70.948571-79.481905-70.948571-39.204571 0-78.311619 31.744-78.311619 70.948571l20.626286 295.936c0 39.204571 18.041905 70.997333 57.197714 70.997334 39.204571 0 59.343238-31.792762 59.343238-70.997334l20.626286-295.936z m-77.043809 405.308953a80.213333 80.213333 0 1 0 0.097523 160.475428 80.213333 80.213333 0 0 0-0.146285-160.426666z" fill="#ff6700" p-id="19521"></path></svg>