<?xml version="1.0" encoding="UTF-8"?>
<svg width="12px" height="12px" viewBox="0 0 12 12" version="1.1" xmlns="http://www.w3.org/2000/svg" xmlns:xlink="http://www.w3.org/1999/xlink">
    <!-- Generator: Sketch 49.3 (51167) - http://www.bohemiancoding.com/sketch -->
    <title>icon-search</title>
    <desc>Created with Sketch.</desc>
    <defs>
        <rect id="path-1" x="0" y="0" width="12" height="12"></rect>
    </defs>
    <g id="Page-1" stroke="none" stroke-width="1" fill="none" fill-rule="evenodd">
        <g id="规范" transform="translate(-117.000000, -241.000000)">
            <g id="icon-search" transform="translate(117.000000, 241.000000)">
                <mask id="mask-2" fill="white">
                    <use xlink:href="#path-1"></use>
                </mask>
                <g id="Mask"></g>
                <path d="M11.7738233,11.7743041 C11.4722543,12.075232 11.0199009,12.075232 10.718332,11.7743041 L8.38117256,9.44211364 C6.34558212,10.9467527 3.55606931,10.8715207 1.67126336,9.14118583 C-0.43971931,7.18515508 -0.590503792,3.72448529 1.44508665,1.61799064 C3.48067709,-0.488504007 6.87332781,-0.563735961 8.98431048,1.54275869 C10.8691164,3.42355748 11.0199009,6.35760361 9.43666391,8.38886631 L11.7738233,10.7210568 C12.0753922,11.0219846 12.0753922,11.4733763 11.7738233,11.7743041 Z M8.23038808,3.04739773 C6.72254332,0.940903077 3.63146154,0.940903077 2.12361678,3.04739773 C1.14351768,4.32634091 1.14351768,6.20713971 2.12361678,7.48608288 C3.63146154,9.59257753 6.72254332,9.59257753 8.23038808,7.48608288 C9.21048719,6.13190775 9.21048719,4.3263409 8.23038808,3.04739773 Z" id="Shape" fill="#FFFFFF" fill-rule="nonzero" mask="url(#mask-2)"></path>
            </g>
        </g>
    </g>
</svg>