<?xml version="1.0" encoding="UTF-8"?>
<svg width="12" height="10" viewBox="0 0 12 10" version="1.1" xmlns="http://www.w3.org/2000/svg" xmlns:xlink="http://www.w3.org/1999/xlink">
    <defs></defs>
    <g  stroke="none" stroke-width="1" fill="none" fill-rule="evenodd">
        <g transform="translate(-1.000000, -2.000000)">
            <rect x="0" y="0" width="14" height="14"></rect>
            <path d="M5.94974747,11.6066017 L1.35355339,7.01040764 C1.15829124,6.81514549 1.15829124,6.498563 1.35355339,6.30330086 C1.54881554,6.10803871 1.86539803,6.10803871 2.06066017,6.30330086 L6.65685425,10.8994949 L11.2530483,6.30330086 C11.4483105,6.10803871 11.764893,6.10803871 11.9601551,6.30330086 C12.1554173,6.498563 12.1554173,6.81514549 11.9601551,7.01040764 L7.36396103,11.6066017 C6.97343674,11.997126 6.34027176,11.997126 5.94974747,11.6066017 Z M5.94974747,7.60660172 L1.35355339,3.01040764 C1.15829124,2.81514549 1.15829124,2.498563 1.35355339,2.30330086 C1.54881554,2.10803871 1.86539803,2.10803871 2.06066017,2.30330086 L6.65685425,6.89949494 L11.2530483,2.30330086 C11.4483105,2.10803871 11.764893,2.10803871 11.9601551,2.30330086 C12.1554173,2.498563 12.1554173,2.81514549 11.9601551,3.01040764 L7.36396103,7.60660172 C6.97343674,7.99712601 6.34027176,7.99712601 5.94974747,7.60660172 Z" id="Combined-Shape" fill="#fff"></path>
        </g>
    </g>
</svg>