<?xml version="1.0" encoding="UTF-8"?>
<svg width="14px" height="14px" viewBox="0 0 14 14" version="1.1" xmlns="http://www.w3.org/2000/svg" xmlns:xlink="http://www.w3.org/1999/xlink">
    <!-- Generator: Sketch 49.3 (51167) - http://www.bohemiancoding.com/sketch -->
    <title>icon-选项</title>
    <desc>Created with Sketch.</desc>
    <defs>
        <rect id="path-1" x="0" y="0" width="14" height="14"></rect>
    </defs>
    <g id="Page-1" stroke="none" stroke-width="1" fill="none" fill-rule="evenodd">
        <g id="规范" transform="translate(-78.000000, -240.000000)">
            <g id="icon-选项" transform="translate(78.000000, 240.000000)">
                <mask id="mask-2" fill="white">
                    <use xlink:href="#path-1"></use>
                </mask>
                <g id="Mask"></g>
                <path d="M0,6.4171875 C0.01875,6.2609375 0.0796875,6.10625 0.1859375,5.9734375 C0.2921875,5.840625 0.428125,5.746875 0.578125,5.6953125 L1.9265625,5.215625 C1.9921875,5.0328125 2.065625,4.8515625 2.1515625,4.675 L1.5375,3.38125 C1.4703125,3.2390625 1.4390625,3.0765625 1.4578125,2.909375 C1.4765625,2.7421875 1.540625,2.5890625 1.6375,2.465625 L2.4640625,1.6390625 C2.5890625,1.5421875 2.740625,1.4765625 2.9078125,1.459375 C3.075,1.4421875 3.2375,1.471875 3.3796875,1.5390625 L4.6734375,2.153125 C4.8515625,2.06875 5.03125,1.99375 5.215625,1.928125 L5.6953125,0.5796875 C5.7484375,0.43125 5.8421875,0.29375 5.9734375,0.1875 C6.10625,0.08125 6.259375,0.0203125 6.4171875,0.0015625 L7.5796875,0.0015625 C7.7359375,0.0203125 7.890625,0.08125 8.0234375,0.1875 C8.15625,0.29375 8.25,0.4296875 8.3015625,0.5796875 L8.78125,1.928125 C8.9640625,1.99375 9.1453125,2.0671875 9.3234375,2.153125 L10.6171875,1.5390625 C10.759375,1.471875 10.921875,1.440625 11.0890625,1.459375 C11.2578125,1.478125 11.409375,1.5421875 11.5328125,1.6390625 L12.359375,2.465625 C12.45625,2.590625 12.521875,2.7421875 12.5390625,2.909375 C12.55625,3.0765625 12.5265625,3.2390625 12.459375,3.38125 L11.8453125,4.675 C11.9296875,4.8515625 12.0046875,5.0328125 12.0703125,5.215625 L13.41875,5.6953125 C13.5671875,5.7484375 13.7046875,5.8421875 13.8109375,5.9734375 C13.9171875,6.1046875 13.978125,6.259375 13.996875,6.4171875 L13.996875,7.58125 C13.978125,7.7375 13.9171875,7.8921875 13.8109375,8.025 C13.7046875,8.1578125 13.56875,8.2515625 13.41875,8.303125 L12.0703125,8.7828125 C12.0046875,8.965625 11.93125,9.146875 11.8453125,9.325 L12.459375,10.61875 C12.5265625,10.7609375 12.5578125,10.9234375 12.5390625,11.090625 C12.5203125,11.259375 12.45625,11.4109375 12.359375,11.534375 L11.5328125,12.3609375 C11.4078125,12.4578125 11.25625,12.5234375 11.0890625,12.540625 C10.9203125,12.559375 10.759375,12.528125 10.6171875,12.4609375 L9.3234375,11.846875 C9.1453125,11.93125 8.965625,12.00625 8.78125,12.071875 L8.303125,13.421875 C8.25,13.5703125 8.15625,13.7078125 8.025,13.8140625 C7.8921875,13.9203125 7.7390625,13.98125 7.58125,14 L6.41875,14 C6.2625,13.98125 6.1078125,13.9203125 5.975,13.8140625 C5.8421875,13.7078125 5.7484375,13.571875 5.696875,13.421875 L5.2171875,12.0734375 C5.034375,12.0078125 4.853125,11.934375 4.675,11.8484375 L3.38125,12.4625 C3.2390625,12.5296875 3.0765625,12.5609375 2.909375,12.5421875 C2.7421875,12.5234375 2.5890625,12.459375 2.465625,12.3625 L1.6390625,11.5359375 C1.5421875,11.4109375 1.4765625,11.259375 1.459375,11.0921875 C1.440625,10.9234375 1.471875,10.7625 1.5390625,10.6203125 L2.153125,9.3265625 C2.06875,9.1484375 1.99375,8.96875 1.928125,8.784375 L0.578125,8.303125 C0.4296875,8.25 0.2921875,8.15625 0.1859375,8.025 C0.0796875,7.8921875 0.01875,7.7390625 0,7.58125 L0,6.4171875 Z M0.8765625,6.5203125 C0.8484375,6.8375 0.8484375,7.1625 0.8765625,7.478125 L2.63125,8.1015625 L2.696875,8.3125 C2.7796875,8.5875 2.8921875,8.8546875 3.028125,9.1125 L3.13125,9.3078125 L2.3328125,10.9890625 C2.540625,11.23125 2.7671875,11.459375 3.0109375,11.6671875 L4.6921875,10.86875 L4.8875,10.971875 C5.1453125,11.1078125 5.4125,11.2203125 5.6875,11.303125 L5.8984375,11.36875 L6.521875,13.1234375 C6.6796875,13.1375 6.8390625,13.1453125 7,13.1453125 C7.1609375,13.1453125 7.3203125,13.1375 7.478125,13.1234375 L8.1015625,11.36875 L8.3125,11.303125 C8.5875,11.2203125 8.8546875,11.1078125 9.1125,10.971875 L9.3078125,10.86875 L10.9890625,11.6671875 C11.23125,11.459375 11.459375,11.2328125 11.6671875,10.9890625 L10.86875,9.3078125 L10.971875,9.1125 C11.1078125,8.8546875 11.2203125,8.5875 11.303125,8.3125 L11.36875,8.1015625 L13.1234375,7.478125 C13.1515625,7.1625 13.1515625,6.8375 13.1234375,6.5203125 L11.36875,5.896875 L11.303125,5.6859375 C11.2203125,5.4125 11.1078125,5.14375 10.971875,4.8875 L10.86875,4.6921875 L11.6671875,3.0109375 C11.459375,2.76875 11.2328125,2.540625 10.9890625,2.3328125 L9.3078125,3.13125 L9.1125,3.028125 C8.8546875,2.8921875 8.5875,2.7796875 8.3125,2.696875 L8.1015625,2.63125 L7.478125,0.8765625 C7.3203125,0.8625 7.1609375,0.8546875 7,0.8546875 C6.8390625,0.8546875 6.6796875,0.8625 6.521875,0.8765625 L5.8984375,2.63125 L5.6875,2.696875 C5.4125,2.7796875 5.1453125,2.8921875 4.8875,3.028125 L4.6921875,3.13125 L3.0109375,2.3328125 C2.76875,2.540625 2.540625,2.7671875 2.3328125,3.0109375 L3.13125,4.6921875 L3.028125,4.8875 C2.8921875,5.14375 2.7796875,5.4125 2.696875,5.6859375 L2.63125,5.896875 L0.8765625,6.5203125 Z M7,5.03125 C8.0859375,5.03125 8.96875,5.9140625 8.96875,7 C8.96875,8.0859375 8.0859375,8.96875 7,8.96875 C5.9140625,8.96875 5.03125,8.0859375 5.03125,7 C5.03125,5.9140625 5.9140625,5.03125 7,5.03125 Z M7,4.15625 C5.4296875,4.15625 4.15625,5.4296875 4.15625,7 C4.15625,8.5703125 5.4296875,9.84375 7,9.84375 C8.5703125,9.84375 9.84375,8.5703125 9.84375,7 C9.84375,5.4296875 8.5703125,4.15625 7,4.15625 Z" id="Shape" fill="#FFFFFF" fill-rule="nonzero" mask="url(#mask-2)"></path>
            </g>
        </g>
    </g>
</svg>