<?xml version="1.0" encoding="UTF-8"?>
<svg width="2px" height="12px" viewBox="0 0 2 12" version="1.1" xmlns="http://www.w3.org/2000/svg" xmlns:xlink="http://www.w3.org/1999/xlink">
    <!-- Generator: Sketch 49.3 (51167) - http://www.bohemiancoding.com/sketch -->
    <title>icon-更多</title>
    <desc>Created with Sketch.</desc>
    <defs>
        <rect id="path-1" x="0" y="0" width="14" height="14"></rect>
    </defs>
    <g id="Page-1" stroke="none" stroke-width="1" fill="none" fill-rule="evenodd">
        <g id="规范" transform="translate(-66.000000, -241.000000)">
            <g id="icon-更多" transform="translate(60.000000, 240.000000)">
                <mask id="mask-2" fill="white">
                    <use xlink:href="#path-1"></use>
                </mask>
                <g id="Mask"></g>
                <path d="M7,3 C6.44771525,3 6,2.55228475 6,2 C6,1.44771525 6.44771525,1 7,1 C7.55228475,1 8,1.44771525 8,2 C8,2.55228475 7.55228475,3 7,3 Z M7,8 C6.44771525,8 6,7.55228475 6,7 C6,6.44771525 6.44771525,6 7,6 C7.55228475,6 8,6.44771525 8,7 C8,7.55228475 7.55228475,8 7,8 Z M7,13 C6.44771525,13 6,12.5522847 6,12 C6,11.4477153 6.44771525,11 7,11 C7.55228475,11 8,11.4477153 8,12 C8,12.5522847 7.55228475,13 7,13 Z" id="Combined-Shape" fill="#4A4A4A" mask="url(#mask-2)"></path>
            </g>
        </g>
    </g>
</svg>