<?xml version="1.0" encoding="UTF-8"?>
<svg width="19px" height="12px" viewBox="0 0 19 12" version="1.1" xmlns="http://www.w3.org/2000/svg" xmlns:xlink="http://www.w3.org/1999/xlink">
    <!-- Generator: Sketch 51.2 (57519) - http://www.bohemiancoding.com/sketch -->
    <title>icon-top</title>
    <desc>Created with Sketch.</desc>
    <defs></defs>
    <g id="Page-1" stroke="none" stroke-width="1" fill="none" fill-rule="evenodd">
        <g id="index" transform="translate(-120.000000, -409.000000)">
            <g id="icon-top" transform="translate(120.000000, 409.000000)">
                <rect id="Rectangle-32" fill="#4D4D4D" fill-rule="nonzero" x="0" y="0" width="19" height="12" rx="2"></rect>
                <path d="M2.12,3.288 L6.8,3.288 L6.8,4.032 L4.896,4.032 L4.896,9 L4.032,9 L4.032,4.032 L2.12,4.032 L2.12,3.288 Z M9.312,4.752 C9.936,4.752 10.44,4.96 10.816,5.376 C11.184,5.784 11.376,6.304 11.376,6.936 C11.376,7.56 11.192,8.08 10.824,8.48 C10.44,8.896 9.936,9.112 9.312,9.112 C8.688,9.112 8.184,8.896 7.8,8.48 C7.432,8.08 7.248,7.56 7.248,6.936 C7.248,6.304 7.432,5.784 7.808,5.376 C8.184,4.96 8.688,4.752 9.312,4.752 Z M9.312,5.448 C8.92,5.448 8.616,5.6 8.4,5.912 C8.208,6.176 8.12,6.52 8.12,6.936 C8.12,7.352 8.208,7.688 8.4,7.952 C8.616,8.256 8.92,8.416 9.312,8.416 C9.704,8.416 10.008,8.256 10.232,7.952 C10.424,7.68 10.52,7.344 10.52,6.936 C10.52,6.52 10.424,6.176 10.232,5.912 C10.008,5.6 9.704,5.448 9.312,5.448 Z M14.256,4.752 C14.864,4.752 15.336,4.968 15.688,5.4 C16.008,5.8 16.168,6.312 16.168,6.952 C16.168,7.56 16.008,8.064 15.696,8.464 C15.36,8.896 14.888,9.112 14.296,9.112 C13.784,9.112 13.368,8.872 13.032,8.392 L13.032,10.584 L12.184,10.584 L12.184,4.864 L12.976,4.864 L12.976,5.36 C13.264,4.952 13.696,4.752 14.256,4.752 Z M14.128,5.44 C13.76,5.44 13.472,5.584 13.272,5.88 C13.096,6.136 13.008,6.48 13.008,6.904 L13.008,6.976 C13.008,7.416 13.112,7.776 13.336,8.048 C13.528,8.296 13.784,8.424 14.104,8.424 C14.52,8.424 14.824,8.288 15.024,8.016 C15.2,7.76 15.296,7.408 15.296,6.952 C15.296,6.496 15.208,6.144 15.048,5.888 C14.848,5.584 14.544,5.44 14.128,5.44 Z" id="Top" fill="#F5F5F5"></path>
            </g>
        </g>
    </g>
</svg>